<?xml version="1.0" standalone="no"?>
<!DOCTYPE svg PUBLIC "-//W3C//DTD SVG 20010904//EN"
 "http://www.w3.org/TR/2001/REC-SVG-20010904/DTD/svg10.dtd">
<svg version="1.0" xmlns="http://www.w3.org/2000/svg"
 width="100px" height="100px" viewBox= none
 preserveAspectRatio="xMidYMid meet">

<g transform="translate(0.000000,320.000000) scale(0.100000,-0.100000)"
fill="#000000" stroke="none">
<path d="M2380 1745 c-104 -33 -166 -123 -164 -242 1 -120 71 -200 194 -223
51 -9 152 -1 166 13 3 3 3 24 -1 45 l-6 40 -36 -10 c-57 -16 -120 -1 -161 37
-34 31 -36 37 -40 101 -2 56 1 75 18 102 29 46 80 66 157 59 l63 -5 10 36 c5
20 6 40 1 45 -16 16 -154 18 -201 2z"/>
<path d="M1770 1599 c0 -174 11 -228 54 -273 55 -59 188 -68 254 -19 69 52 81
96 82 296 l0 147 -55 0 -55 0 0 -160 c0 -199 -11 -230 -85 -230 -74 0 -85 31
-85 230 l0 160 -55 0 -55 0 0 -151z"/>
</g>
</svg>
